<svg xmlns="http://www.w3.org/2000/svg" width="20" height="18" fill="none" xmlns:v="https://vecta.io/nano"><path fill-rule="evenodd" d="M14.072 17.353l-.635-.4-.275-.253c-.992-.876-2.077-2.554-1.788-5.746.17-2.496 1.43-6.233 6.48-9.872.243-.17.526-.255.81-.255.392 0 .782.16 1.044.474.447.533.34 1.302-.234 1.715-4.115 2.96-5.238 5.863-5.437 7.853.58-.302 1.237-.486 1.95-.486C18.2 10.38 20 12.047 20 14.102s-1.796 3.722-4.015 3.722c-.502 0-.962-.114-1.4-.275l.014.03-.463-.197-.04-.015-.022-.015zm-11.953-.4l-.278-.253C.843 15.822-.24 14.144.047 10.952.22 8.456 1.478 4.72 6.53 1.08c.243-.17.526-.255.81-.255.393 0 .782.16 1.044.474a1.16 1.16 0 0 1-.234 1.715c-4.115 2.96-5.238 5.863-5.435 7.853.58-.302 1.237-.486 1.95-.486 2.22 0 4.015 1.666 4.015 3.722s-1.793 3.722-4.01 3.722c-.5 0-.965-.114-1.404-.275l.014.03-.463-.197-.044-.015-.022-.015-.632-.4z" fill="#090509"/></svg>